DataType=double
version=3
OpenSimVersion=4.5-2023-11-26-efcdfd3eb
endheader
time	EMG01_right_gast_med	EMG02_right_glut_max	EMG03_left_gast_med	EMG04_left_glut_max	EMG05_right_glut_med	EMG06_right_bic_fem	EMG07_right_rect_fem	EMG08_right_vast_lat	EMG09_right_vast_med	EMG10_right_tens_fasc_lat	EMG11_left_glut_med	EMG12_left_bic_fem	EMG13_left_rect_fem	EMG14_left_vast_lat	EMG15_left_vast_med	EMG16_left_tens_fasc_lat
1.5	104.6688013497947	10.95973624558889	-1.945359017473254	44.48219289809031	30.2660702904619	5.838468666572485	2.917869050189839	3.689119583180692	16.51042779555477	12.14506622723563	6.763535535793988	18.61040849019514	5.07302809453292	12.26102287837468	3.703857439121297	40.63364197635141
1.51	105.6224858809444	9.38278542579088	-1.070008109244781	43.40003583280067	30.85857714865536	5.805582733209487	2.907883805626061	3.213099278914487	14.51256432551198	11.7801050655768	7.206983425390329	19.65545919039637	5.411488569683162	12.9288917918404	4.270716504935387	39.05105541771188
1.52	106.2637205826604	7.920024373671879	-0.1681703947407086	42.44619439099055	32.17748826881537	5.873066938515534	2.933945673528911	2.815223129807042	12.71360691837505	11.4846719903361	7.686787832514899	20.66022582548382	5.770879291918733	13.63781125777303	5.076320100768167	37.52198279147834
1.53	106.5777541072238	6.5857704141811	0.7586313464768856	41.63117355733495	34.23601762453259	6.025580058982	2.995002400144288	2.496253954172387	11.11946838205075	11.26180493755079	8.203744656551113	21.61656396438299	6.147600172160089	14.38228906525837	6.126365765114532	36.07853081445715
1.54	106.5522035801453	5.393224229843201	1.710203057582288	40.9628574594957	37.0394387451563	6.24780085621039	3.089609890569811	2.256262878544692	9.734122913702281	11.11440951181698	8.758245240499194	22.51673484558755	6.537768265624149	15.15605309288236	7.423908143938107	34.75179159472292
1.55	106.1773929843668	4.354381330365036	2.687517237627225	40.44649516245889	40.58466228007365	6.5246791531646	3.215949349209201	2.094655438578109	8.559626871080146	11.04527274386777	9.350217597772971	23.35346516430344	6.937269173083208	15.95213105604136	8.969223403059392	33.57144228827303
1.56	105.446675109266	3.479950026426376	3.692533576746544	40.08471706581444	44.85988833325311	6.841669896844386	3.371848921923121	2.010200203882803	7.596149434175654	11.05706374572341	9.979072772957364	24.12000156953181	7.341814165670815	16.76294373019496	10.75970101914714	32.56535791835647
1.57	104.3567249661298	2.77927453870089	4.728006684105535	39.87758101151181	49.8443441184741	7.184947317986216	3.554809643849109	2.001059084243635	6.842012241983006	11.15232011529019	10.64365816809395	24.81016049379728	7.74700205677061	17.58040991010809	12.78976603595844	31.75924039246405
1.58	102.9077941083158	2.26026217191992	5.797285329191198	39.82264860098465	55.50811741208068	7.54159686452004	3.76203545487052	2.064818570598528	6.293737181835589	11.33341972054541	11.34221979699453	25.41837397609772	8.148384564655041	18.3960611831212	15.05083474661318	31.17626816406386
1.59	101.1039162227146	1.929313905758899	6.904107729397327	39.91509293770905	61.81209561707714	7.899782937558293	3.990467000447459	2.198521311497498	5.946101716453236	11.60253827159141	12.07237545700019	25.93973234547823	8.541533688709931	19.20116456536952	17.53130652017526	30.83677205672501
1.6	98.95305393829095	1.791258279199629	8.052397477114106	40.14783885176568	68.70801961690078	8.248890740390898	4.236818898665955	2.398697618801235	5.792201424078848	11.96159381074015	12.83110066800422	26.37002474017051	8.922109510131738	19.98685108207879	20.21659411996726	30.75794319190914
1.61	96.46717601693862	1.849289009540572	9.246064683005025	40.51173569715875	76.13866137816939	8.579640864949614	4.497620121114958	2.661396714145716	5.823519699490509	12.4121798940331	13.61472890372564	26.7057782495823	9.285926852442827	20.74424833627496	23.08919437597751	30.95357871509016
1.62	93.66225440394675	2.104907285178874	10.48881681453625	40.99576136244019	84.03813432585528	8.88417559434186	4.76925707663015	2.982217738834824	6.030004790597387	12.95548977809491	14.41896715555183	26.94429597690705	9.629019400136945	21.46461488762343	26.12880052262756	31.4338702610019
1.63	90.55817237841705	2.557870049128648	11.78398353125176	41.58725454927964	92.33234533341063	9.156116311534154	5.048018887326994	3.356340723507846	6.400154584662705	13.59223428840596	15.23892729664385	27.08369365088463	9.947700137901721	22.13947380827242	29.31245697103915	32.20523909935966
1.64	87.17853801292098	3.206145889656958	13.13435956446249	42.27217085670829	100.9395961508442	9.390592009922365	5.330144237527676	3.778557841509017	6.921109823329702	14.32255617759354	16.06917315810586	27.12293368512082	10.23861724064355	22.76074223662726	32.61475679693869	33.27022092697997
1.65	83.55040143206058	4.045880412829237	14.54206935861028	43.03535685485735	109.7713400422549	9.584239862513392	5.61186910920684	4.24330537519861	7.578756630196193	15.14594374411085	16.90378277352563	27.06185484573837	10.49880471402418	23.32085346138015	36.00808175621047	34.62740248319005
1.66	79.70387975508136	5.071373158331406	16.00845676883191	43.86083526208981	118.7330965743782	9.735180030020546	5.889474701214553	4.744696946517971	8.357839309343477	16.06114635073498	17.73642489051817	26.90119500050888	10.72572714565059	23.81286835452382	39.46288408385104	36.27141158131948
1.67	75.67169902043346	6.275068212602439	17.53400257801379	44.73209377469398	127.7255240283406	9.842967975581367	6.159334817061911	5.276558715697365	9.242084346895801	17.06609425573681	18.5604485037945	26.64260396309824	10.9173179491411	24.23057382172055	42.94800857244034	38.19296170150034
1.68	71.48866676362918	7.647560711524928	19.11827196049692	45.63237021394777	136.6456445462187	9.908528150300713	6.417961941695391	5.832467395107182	10.21433646958481	18.15782483356233	19.36898375251016	26.28864351045086	11.07201053269999	24.56856699632983	46.43105243199463	40.37895187528585
1.69	67.19109202298445	9.177621442650977	20.75989329304648	46.54492735727577	145.3882116707609	9.93407299309486	6.66205109466422	6.405791991499413	11.256707476467	19.33241686494456	20.15505202562873	25.84277242291421	11.1887619222672	24.82232475680318	49.87875929256214	42.81262208618287
